<?xml version="1.0" standalone="no"?>
<!DOCTYPE svg PUBLIC "-//W3C//DTD SVG 20010904//EN"
 "http://www.w3.org/TR/2001/REC-SVG-20010904/DTD/svg10.dtd">
<svg version="1.0" xmlns="http://www.w3.org/2000/svg"
 width="256.000000pt" height="256.000000pt" viewBox="0 0 256.000000 256.000000"
 preserveAspectRatio="xMidYMid meet">

<g transform="translate(0.000000,256.000000) scale(0.100000,-0.100000)"
fill="#000000" stroke="none">
<path d="M1050 2405 c-274 -47 -508 -161 -698 -340 -233 -219 -352 -485 -352
-785 0 -296 117 -559 347 -781 186 -180 437 -301 718 -346 123 -19 391 -13
505 12 478 105 850 439 961 863 26 100 36 292 20 402 -23 154 -81 300 -179
450 -53 80 -225 249 -316 310 -160 107 -357 184 -551 215 -109 18 -351 18
-455 0z m320 -395 c-10 -19 -30 -28 -30 -14 0 6 30 33 38 34 1 0 -2 -9 -8 -20z
m-44 -5 c-3 -9 1 -18 9 -21 18 -7 20 -25 3 -21 -7 1 -12 -4 -10 -12 3 -12 1
-12 -13 -1 -9 7 -12 16 -8 19 4 3 8 12 9 19 2 25 4 32 10 32 3 0 3 -7 0 -15z
m-2 -74 c12 -10 13 -17 5 -27 -11 -14 -5 -34 11 -34 5 0 22 14 38 31 l29 31 7
-46 c8 -49 19 -58 36 -27 14 27 13 31 -6 24 -12 -4 -15 -2 -12 8 8 22 50 14
112 -21 44 -25 56 -37 56 -57 0 -14 4 -22 10 -18 6 4 8 11 5 16 -4 5 -2 9 3 9
21 0 19 -15 -6 -48 l-27 -35 -5 29 c-3 16 -10 27 -15 24 -6 -3 -9 -8 -8 -12 5
-14 -14 -8 -58 17 -24 14 -61 30 -82 36 -21 5 -35 14 -32 19 3 5 1 11 -5 15
-5 3 -10 1 -10 -4 0 -6 -13 -11 -30 -11 -16 0 -30 5 -30 10 0 6 -6 5 -14 -2
-8 -7 -12 -16 -9 -20 2 -5 0 -8 -6 -8 -5 0 -12 6 -14 13 -4 8 -6 7 -6 -3 -1
-9 4 -21 10 -27 20 -20 -1 -33 -54 -34 l-52 -2 65 -9 c36 -4 96 -12 133 -17
63 -9 247 -83 247 -101 0 -3 -39 13 -87 37 -49 24 -115 48 -148 54 -65 12
-203 5 -219 -11 -6 -6 -19 -10 -30 -10 -16 0 -17 -3 -8 -9 11 -7 11 -9 -2 -14
-9 -4 -22 -4 -30 -1 -18 7 -79 -24 -71 -36 3 -5 1 -11 -4 -14 -5 -4 -12 -2
-16 4 -12 19 -40 -23 -40 -59 0 -30 -4 -37 -22 -39 l-23 -3 0 -274 0 -274 23
-4 c19 -4 18 -4 -5 -6 l-28 -1 0 284 0 285 22 3 c19 3 23 9 23 50 1 53 -11 55
-21 3 -4 -25 -11 -35 -25 -35 -15 0 -19 -7 -19 -36 0 -45 0 -45 -134 46 -57
38 -107 70 -110 70 -4 0 -11 -12 -17 -26 -5 -15 -12 -25 -15 -22 -2 3 0 17 5
32 9 23 8 26 -9 26 -34 0 -22 14 48 53 88 51 133 49 222 -12 47 -32 66 -40 83
-35 12 5 25 7 30 6 4 -1 7 3 7 9 0 6 33 25 73 44 58 27 76 41 89 68 l17 35
-30 -8 c-34 -10 -114 -54 -142 -78 -9 -8 -18 -13 -20 -11 -2 2 -11 16 -20 32
-18 28 -41 38 -31 13 3 -8 -3 -16 -16 -19 -18 -5 -20 -9 -10 -26 13 -26 35
-27 49 -3 9 14 10 14 11 2 0 -22 -20 -40 -45 -40 -25 0 -45 18 -45 41 0 10 24
38 52 62 40 35 56 43 66 35 9 -8 10 -13 2 -18 -7 -5 -6 -11 5 -20 12 -10 15
-10 15 1 0 11 2 11 10 -1 5 -8 12 -11 16 -8 3 4 -3 20 -15 37 l-22 30 21 11
c17 9 20 8 20 -7 0 -10 7 -27 16 -38 14 -19 15 -19 21 3 4 18 8 20 19 11 18
-15 18 -1 -1 34 -14 27 -13 28 12 38 15 5 32 8 40 5 15 -6 18 -26 3 -26 -5 0
-7 -6 -4 -13 3 -8 11 -14 19 -14 19 0 21 57 3 58 -7 0 2 5 21 11 23 6 37 6 44
-1 16 -16 31 -13 18 2 -9 11 -4 14 23 13 18 -1 41 -8 50 -15z m370 -170 c10
-11 15 -25 10 -32 -5 -9 -10 -6 -15 9 -5 12 -14 22 -21 22 -16 0 -42 -39 -33
-48 3 -4 10 0 15 8 7 12 11 12 25 0 16 -13 16 -15 -1 -27 -15 -11 -21 -10 -41
9 -27 25 -29 41 -7 62 21 21 47 20 68 -3z m-434 -65 c0 -3 -4 -8 -10 -11 -5
-3 -10 -1 -10 4 0 6 5 11 10 11 6 0 10 -2 10 -4z m40 -8 c0 -4 -4 -8 -9 -8 -6
0 -12 4 -15 8 -3 5 1 9 9 9 8 0 15 -4 15 -9z m30 2 c0 -5 -2 -10 -4 -10 -3 0
-8 5 -11 10 -3 6 -1 10 4 10 6 0 11 -4 11 -10z m-160 -11 c13 -9 12 -10 -2 -5
-10 3 -18 2 -18 -3 0 -5 -12 -8 -26 -8 -17 0 -22 2 -13 8 7 4 17 5 21 3 4 -3
8 0 8 5 0 14 11 14 30 0z m-120 -9 c0 -5 -5 -10 -11 -10 -5 0 -7 5 -4 10 3 6
8 10 11 10 2 0 4 -4 4 -10z m380 6 c0 -3 -4 -8 -10 -11 -5 -3 -10 -1 -10 4 0
6 5 11 10 11 6 0 10 -2 10 -4z m17 -18 c-3 -8 -6 -5 -6 6 -1 11 2 17 5 13 3
-3 4 -12 1 -19z m-357 -9 c0 -5 -4 -8 -9 -5 -5 4 -12 0 -14 -6 -3 -8 -6 -6 -6
5 -1 9 6 17 14 17 8 0 15 -5 15 -11z m-530 -14 c0 -8 -2 -15 -4 -15 -2 0 -6 7
-10 15 -3 8 -1 15 4 15 6 0 10 -7 10 -15z m21 -8 c-10 -9 -11 -8 -5 6 3 10 9
15 12 12 3 -3 0 -11 -7 -18z m-72 -48 c-19 -11 -24 -3 -8 14 8 9 16 11 18 5 2
-6 -3 -14 -10 -19z m68 15 c-3 -3 -12 -4 -19 -1 -8 3 -5 6 6 6 11 1 17 -2 13
-5z m33 -24 c0 -3 -7 -16 -16 -28 -12 -17 -12 -22 -2 -22 7 -1 -3 -8 -22 -17
-19 -9 -38 -15 -42 -15 -5 1 -8 -3 -8 -10 0 -13 -7 -8 -10 7 -1 6 -7 17 -13
25 -10 13 -10 13 6 1 13 -10 20 -11 30 -2 8 6 17 8 20 4 4 -3 7 -1 7 5 0 7 -4
12 -10 12 -6 0 -6 8 1 23 7 15 19 23 35 23 13 0 24 -3 24 -6z m880 -25 c32
-16 55 -72 45 -106 -4 -11 -34 -51 -67 -87 l-61 -67 49 -8 c31 -5 55 -5 65 2
21 12 29 5 29 -25 0 -33 -16 -39 -102 -39 -82 0 -83 1 -78 50 1 11 19 43 39
70 53 70 61 88 61 133 0 42 -20 68 -45 58 -17 -6 -20 -47 -4 -63 13 -13 4 -33
-16 -33 -18 0 -35 31 -35 64 0 28 42 66 72 66 10 0 32 -7 48 -15z m168 -22
c-1 -37 -1 -37 -5 -6 -3 23 -10 33 -26 36 -18 4 -17 5 6 6 25 1 27 -2 25 -36z
m-545 -295 c32 -18 17 -28 -43 -28 -63 0 -73 7 -40 28 18 11 20 23 20 142 0
123 -1 130 -20 130 -32 0 -23 17 18 33 l37 15 6 -155 c4 -131 8 -157 22 -165z
m186 306 c35 -25 51 -75 51 -157 0 -126 -60 -206 -132 -176 -88 36 -98 276
-14 334 27 20 66 19 95 -1z m-821 -48 c-7 -8 -15 -12 -17 -11 -5 6 10 25 20
25 5 0 4 -6 -3 -14z m112 4 c0 -5 -5 -10 -11 -10 -6 0 -8 -7 -5 -15 3 -10 1
-15 -7 -13 -7 2 -14 -1 -16 -7 -2 -5 -11 -16 -20 -23 -15 -12 -15 -13 0 -9 9
3 22 1 30 -4 12 -8 12 -10 -1 -8 -22 2 -60 -12 -60 -22 0 -12 17 -11 25 1 3 6
14 10 23 9 11 0 13 -2 4 -6 -10 -4 -10 -8 -1 -19 9 -11 9 -18 1 -26 -9 -9 -12
-8 -12 5 0 9 -7 17 -15 17 -16 0 -21 -16 -6 -22 10 -3 14 -22 12 -48 -1 -16
-37 -25 -46 -11 -2 5 -6 23 -7 40 -2 31 -28 58 -42 44 -3 -3 -6 -4 -6 -1 0 3
17 16 38 28 32 19 60 49 54 58 -4 4 52 51 61 52 4 0 7 -4 7 -10z m1080 -360
c6 0 10 -16 10 -35 l0 -35 50 0 c61 0 103 -20 224 -106 49 -35 95 -64 102 -64
13 0 44 119 65 252 6 43 16 75 20 72 5 -3 9 2 9 10 0 8 7 19 16 24 15 8 15 10
0 15 -10 4 -15 3 -11 -3 3 -6 1 -10 -5 -10 -17 0 1 52 24 71 12 10 23 15 26
13 2 -3 -2 -9 -10 -14 -10 -7 -11 -10 -2 -10 18 0 15 -50 -5 -72 -15 -16 -15
-18 -1 -13 14 6 16 -10 17 -144 0 -83 -3 -151 -8 -151 -5 0 -12 -7 -15 -16 -4
-9 -2 -13 5 -8 7 4 10 1 7 -6 -4 -14 -58 -21 -58 -9 0 11 -34 3 -38 -9 -2 -6
5 -9 15 -7 44 7 30 -11 -42 -52 -42 -24 -91 -47 -109 -50 -39 -6 -100 19 -166
68 -25 19 -72 51 -105 72 l-60 37 -5 -25 c-5 -23 -56 -62 -67 -51 -3 3 8 11
25 20 40 21 34 61 -10 70 -17 3 -35 4 -42 1 -16 -8 11 11 74 50 49 31 53 35
33 41 -13 4 -23 10 -23 15 0 5 -15 13 -32 18 l-33 9 38 1 c20 1 40 1 44 0 16
-1 22 45 25 211 l3 175 2 -177 c2 -107 7 -178 13 -178z m-1167 315 c-3 -9 -8
-14 -10 -11 -3 3 -2 9 2 15 9 16 15 13 8 -4z m-27 -21 c-4 -9 -9 -15 -11 -12
-3 3 -3 13 1 22 4 9 9 15 11 12 3 -3 3 -13 -1 -22z m99 6 c3 -5 1 -10 -4 -10
-6 0 -11 5 -11 10 0 6 2 10 4 10 3 0 8 -4 11 -10z m-149 -146 c12 -13 20 -25
18 -28 -2 -4 1 -2 8 3 8 8 8 14 0 24 -9 10 -8 17 1 27 9 10 9 11 0 6 -7 -4
-13 -2 -13 3 0 6 7 11 15 11 9 0 15 -9 15 -24 0 -14 8 -31 19 -38 13 -9 16
-19 11 -33 -8 -19 -8 -19 -17 4 -9 24 -10 24 -15 4 -4 -15 1 -25 18 -34 24
-12 23 -14 -46 -52 -39 -21 -73 -37 -75 -35 -3 3 -8 193 -5 228 1 10 9 4 23
-15 12 -16 32 -39 43 -51z m955 -108 c6 3 7 -6 4 -23 l-6 -28 16 29 c16 27 17
28 31 8 24 -35 4 -61 -46 -58 -17 1 -25 7 -24 19 1 9 -2 14 -7 11 -12 -7 -11
0 3 32 7 14 14 21 16 15 2 -6 8 -8 13 -5z m-186 -14 c9 23 26 13 18 -10 -4
-11 1 -8 14 7 27 33 50 19 28 -17 -14 -24 -13 -24 9 3 14 16 36 31 49 32 21 1
24 -2 22 -35 l-1 -37 -67 0 c-66 0 -67 0 -85 -34 -22 -44 -47 -60 -64 -43 -10
10 -7 18 19 38 26 20 30 28 22 42 -7 12 -7 26 1 47 11 27 13 28 20 10 7 -18 8
-19 15 -3z m-25 -213 c0 -6 -4 -7 -10 -4 -5 3 -10 11 -10 16 0 6 5 7 10 4 6
-3 10 -11 10 -16z m17 -1 c-3 -8 -6 -5 -6 6 -1 11 2 17 5 13 3 -3 4 -12 1 -19z
m80 0 c-3 -8 -6 -5 -6 6 -1 11 2 17 5 13 3 -3 4 -12 1 -19z m27 7 c-4 -8 -8
-15 -10 -15 -2 0 -4 7 -4 15 0 8 4 15 10 15 5 0 7 -7 4 -15z m43 -7 c-3 -8 -6
-5 -6 6 -1 11 2 17 5 13 3 -3 4 -12 1 -19z m63 7 c0 -8 -7 -15 -15 -15 -8 0
-15 5 -15 11 0 5 5 7 10 4 6 -3 10 -1 10 4 0 6 2 11 5 11 3 0 5 -7 5 -15z m17
-7 c-3 -8 -6 -5 -6 6 -1 11 2 17 5 13 3 -3 4 -12 1 -19z m-282 2 c3 -5 1 -10
-4 -10 -6 0 -11 5 -11 10 0 6 2 10 4 10 3 0 8 -4 11 -10z m430 0 c3 -6 -1 -7
-9 -4 -18 7 -21 14 -7 14 6 0 13 -4 16 -10z m3 -34 c-7 -8 -15 -12 -17 -11 -5
6 10 25 20 25 5 0 4 -6 -3 -14z m-454 -95 c-5 -5 -123 53 -149 73 -11 9 19 -3
66 -27 47 -23 85 -44 83 -46z m346 79 c0 -5 -2 -10 -4 -10 -3 0 -8 5 -11 10
-3 6 -1 10 4 10 6 0 11 -4 11 -10z m42 -12 c-7 -7 -12 -8 -12 -2 0 14 12 26
19 19 2 -3 -1 -11 -7 -17z m34 -14 c-3 -9 -6 -18 -6 -20 0 -2 -5 -4 -11 -4 -8
0 -9 4 0 13 6 8 8 17 4 20 -3 4 -1 7 6 7 8 0 11 -6 7 -16z m-236 -68 c80 0 88
-1 50 -8 -49 -10 -169 -2 -204 13 -14 6 -8 6 19 1 22 -4 83 -7 135 -6z m226
-13 c-3 -8 -6 -19 -6 -24 0 -5 -4 -9 -8 -9 -5 0 -8 13 -8 29 0 20 4 27 13 24
8 -3 12 -12 9 -20z m-91 -28 c-3 -29 10 -42 19 -19 3 8 10 13 15 10 5 -3 8 0
7 7 0 6 4 13 9 15 6 1 10 -2 10 -7 0 -5 3 -12 6 -15 8 -9 -1 -56 -12 -56 -4 0
-11 5 -14 10 -10 16 -25 12 -19 -5 4 -8 1 -15 -5 -15 -6 0 -11 -7 -11 -15 0
-9 -6 -15 -12 -14 -21 2 -58 -13 -58 -23 0 -6 7 -8 15 -4 16 6 19 -2 7 -22 -6
-9 -14 -7 -30 8 -26 25 -26 27 -7 64 8 15 13 31 10 36 -2 4 7 5 20 2 18 -3 25
0 25 11 0 8 6 18 13 21 9 5 9 7 -2 12 -11 5 -11 8 0 15 8 5 15 9 16 9 1 0 0
-11 -2 -25z m-60 -170 c11 -4 23 -7 28 -7 4 1 7 -2 7 -6 0 -17 -13 -21 -32
-11 -27 15 -46 0 -22 -19 18 -14 18 -14 1 -8 -10 3 -24 6 -31 6 -7 0 -13 7
-13 15 0 8 4 12 9 8 6 -3 9 3 8 13 -1 11 -2 26 -1 34 1 13 3 13 14 -1 7 -8 21
-19 32 -24z m65 15 c0 -5 -7 -10 -15 -10 -8 0 -15 5 -15 10 0 6 7 10 15 10 8
0 15 -4 15 -10z m-111 -77 c2 -2 -5 -3 -17 -3 -14 0 -22 6 -22 16 0 14 3 15
18 3 9 -7 19 -15 21 -16z"/>
<path d="M1480 1857 c-11 -22 -11 -30 -1 -40 9 -9 16 -7 31 13 23 30 25 44 6
37 -8 -3 -17 -1 -19 6 -2 7 -10 0 -17 -16z"/>
<path d="M1537 1820 c-10 -16 -14 -30 -8 -30 10 0 41 39 41 52 0 17 -17 6 -33
-22z"/>
<path d="M1210 1806 c0 -9 39 -13 51 -5 10 6 4 9 -18 9 -18 0 -33 -2 -33 -4z"/>
<path d="M1213 1493 c-22 -33 -25 -182 -5 -230 23 -54 61 -54 84 0 20 48 16
198 -5 231 -22 33 -52 33 -74 -1z"/>
<path d="M476 1372 c-3 -5 1 -15 8 -21 11 -10 14 -9 12 3 -3 21 -13 29 -20 18z"/>
<path d="M2167 1304 c-4 -4 -7 -14 -7 -23 0 -11 3 -12 11 -4 6 6 10 16 7 23
-2 6 -7 8 -11 4z"/>
<path d="M2150 981 c0 -9 30 -24 36 -18 2 1 -6 8 -16 15 -11 7 -20 8 -20 3z"/>
<path d="M2090 946 c0 -2 7 -6 15 -10 8 -3 15 -1 15 4 0 6 -7 10 -15 10 -8 0
-15 -2 -15 -4z"/>
<path d="M1298 1164 c-5 -4 -8 -16 -8 -28 0 -14 3 -17 11 -9 6 6 9 19 7 28 -1
9 -6 13 -10 9z"/>
<path d="M1130 1045 c-7 -8 -8 -15 -2 -15 5 0 15 7 22 15 7 8 8 15 2 15 -5 0
-15 -7 -22 -15z"/>
</g>
</svg>
